# xmcd
#
# Track frame offsets: 
#        150
#        18731
#        29289
#        38655
#        54579
#        61395
#        77790
#        88710
#        102249
#        124575
#        133898
#        145458
#        156459
#        164838
#        180072
#        200938
#        237378
#        247644
#        264036
#        274472
#
# Disc length: 4075 seconds
#
# Revision: 0
# Processed by: cddbd v1.5.2PL0 Copyright (c) Steve Scherf et al.
# Submitted via: ExactAudioCopy v0.99pb3
#
DISCID=1f0fe914
DTITLE=Gandhi - Freud - Vitamins ('72-'75)
DYEAR=1997
DGENRE=Electronic
TTITLE0=Chromium
TTITLE1=A
TTITLE2=C
TTITLE3=E
TTITLE4=B1
TTITLE5=B2
TTITLE6=B3
TTITLE7=B5
TTITLE8=B6
TTITLE9=B12
TTITLE10=Magnesium
TTITLE11=Copper
TTITLE12=Manganese
TTITLE13=Zinc
TTITLE14=Molybdene
TTITLE15=Gandhi
TTITLE16=Michelangelo
TTITLE17=Platon
TTITLE18=Picasso
TTITLE19=Freud
EXTD=
EXTT0=
EXTT1=
EXTT2=
EXTT3=
EXTT4=
EXTT5=
EXTT6=
EXTT7=
EXTT8=
EXTT9=
EXTT10=
EXTT11=
EXTT12=
EXTT13=
EXTT14=
EXTT15=
EXTT16=
EXTT17=
EXTT18=
EXTT19=
PLAYORDER=
